<svg data-v-0dd9719b="" version="1.0" xmlns="http://www.w3.org/2000/svg" xmlns:xlink="http://www.w3.org/1999/xlink" width="100%" height="100%" viewBox="0 0 340.000000 250.000000" preserveAspectRatio="xMidYMid meet" color-interpolation-filters="sRGB" style="margin: auto;"> <rect data-v-0dd9719b="" x="0" y="0" width="100%" height="100%" fill="#fff" fill-opacity="1" class="background"></rect> <rect data-v-0dd9719b="" x="0" y="0" width="100%" height="100%" fill="url(#watermark)" fill-opacity="1" class="watermarklayer"></rect> <g data-v-0dd9719b="" fill="#333" class="icon-text-wrapper icon-svg-group iconsvg" transform="translate(51,97.4307785080665)"><g class="iconsvg-imagesvg" transform="translate(0,0)"><g><rect fill="#333" fill-opacity="0" stroke-width="2" x="0" y="0" width="60" height="55.138443441741636" class="image-rect"></rect> <svg x="0" y="0" width="60" height="55.138443441741636" filtersec="colorsb7550892784" class="image-svg-svg primary" style="overflow: visible;"><svg xmlns="http://www.w3.org/2000/svg" viewBox="-0.0009871721267700195 -0.03984508663415909 48.083465576171875 44.187503814697266"><path d="M43.33 13.14c-1-4.45-3.25-7.95-7.61-9.78A12.08 12.08 0 0 0 27.57 3c-4.78 1.35-8.15 4.51-10.8 8.55a36.67 36.67 0 0 0-2.69 5.21c-.07.14-.22.33-.06.44s.31-.11.41-.23a27.2 27.2 0 0 1 9-7.44 14.56 14.56 0 0 1 7.54-1.81A9.83 9.83 0 0 1 35 8.83a2.14 2.14 0 0 1 .81.85 13.22 13.22 0 0 1 1.81 4c.67 2.86-.43 5-2.64 6.77a27.31 27.31 0 0 1-7.48 3.74c-3.09 1.16-6.26 2.09-9.31 3.34a21.66 21.66 0 0 0-3.9 2c-1.77 1.16-3.17 2.59-3.17 4.94a20.27 20.27 0 0 1-1.43-2.77A24.42 24.42 0 0 1 7.4 19.57a20.09 20.09 0 0 1 6-12.76A22.5 22.5 0 0 1 26 .28a15.23 15.23 0 0 1 11.45 2.17 12.79 12.79 0 0 1 5.08 6.92 21.32 21.32 0 0 1 .82 3 1.21 1.21 0 0 1-.02.77z" fill="#91c51c"></path><path d="M38.7 32.91a42.16 42.16 0 0 1-18.86 5.58 8.63 8.63 0 0 1-2.84-.25c-.78-.21-.78-.23-.53-1a12.49 12.49 0 0 1 5.09-6.34 38.84 38.84 0 0 1 7.83-3.88c3.3-1.3 6.67-2.4 9.84-4A17.2 17.2 0 0 0 44.85 19a9.54 9.54 0 0 0 2-3.84c.05-.18 0-.46.28-.45s.24.28.3.46a16.18 16.18 0 0 1 .18 8.43 26.23 26.23 0 0 1-8 13.37 25.83 25.83 0 0 1-12.48 6.7A20.4 20.4 0 0 1 11 40.43a24 24 0 0 1-9.25-10.94c-3.18-7.85-1.94-15.17 3-21.93a27.19 27.19 0 0 1 6.17-6c.4-.29.8-.58 1.21-.86.14-.1.27-.26.51-.13A16.25 16.25 0 0 1 11 2.05a26 26 0 0 0-7.26 10.73C1.26 20.3 2.62 27.23 7.29 33.53a17.9 17.9 0 0 0 7.6 6.08 15.25 15.25 0 0 0 5 1 23.19 23.19 0 0 0 18.5-7.21 2.69 2.69 0 0 0 .3-.37s.01-.03.01-.12z" fill="#2d9c4c"></path></svg></svg> <!----></g></g> <g transform="translate(67,8.684221267700195)"><g data-gra="path-name" fill-rule="" class="tp-name iconsvg-namesvg"><g transform="scale(1)"><g><path d="M36.51-18.46L36.51-18.46Q36.51-14.31 35.19-10.91 33.88-7.5 31.48-5.08 29.08-2.66 25.73-1.33 22.38 0 18.3 0L18.3 0 4.49 0 4.49-36.94 18.3-36.94Q22.38-36.94 25.73-35.62 29.08-34.29 31.48-31.85 33.88-29.42 35.19-26.01 36.51-22.61 36.51-18.46ZM31.37-18.46L31.37-18.46Q31.37-21.86 30.45-24.54 29.52-27.22 27.82-29.08 26.12-30.94 23.69-31.92 21.27-32.9 18.3-32.9L18.3-32.9 9.51-32.9 9.51-4.05 18.3-4.05Q21.27-4.05 23.69-5.03 26.12-6.01 27.82-7.85 29.52-9.69 30.45-12.37 31.37-15.06 31.37-18.46ZM57.85-36.94L72.62 0 68.76 0Q68.09 0 67.67-0.34 67.26-0.67 67.06-1.19L67.06-1.19 63.6-10.11 47.02-10.11 43.57-1.19Q43.39-0.72 42.95-0.36 42.51 0 41.87 0L41.87 0 38 0 52.77-36.94 57.85-36.94ZM54.22-28.72L48.42-13.72 62.21-13.72 56.41-28.75Q55.84-30.14 55.3-32.23L55.3-32.23Q55.02-31.17 54.75-30.28 54.47-29.39 54.22-28.72L54.22-28.72ZM97.42-33.54L96.21-31.17Q95.98-30.78 95.72-30.59 95.47-30.4 95.05-30.4L95.05-30.4Q94.61-30.4 94.03-30.83 93.45-31.27 92.57-31.8 91.68-32.33 90.43-32.77 89.18-33.21 87.4-33.21L87.4-33.21Q85.72-33.21 84.43-32.75 83.14-32.3 82.28-31.53 81.42-30.76 80.98-29.71 80.54-28.67 80.54-27.46L80.54-27.46Q80.54-25.91 81.3-24.89 82.06-23.87 83.31-23.15 84.56-22.43 86.15-21.9 87.73-21.37 89.39-20.8 91.06-20.24 92.64-19.53 94.23-18.82 95.48-17.74 96.73-16.65 97.49-15.08 98.25-13.51 98.25-11.21L98.25-11.21Q98.25-8.79 97.42-6.66 96.6-4.54 95.01-2.96 93.43-1.39 91.12-0.49 88.81 0.41 85.88 0.41L85.88 0.41Q82.29 0.41 79.34-0.89 76.39-2.19 74.3-4.41L74.3-4.41 75.74-6.78Q75.95-7.06 76.25-7.26 76.54-7.45 76.9-7.45L76.9-7.45Q77.44-7.45 78.14-6.87 78.84-6.29 79.88-5.59 80.93-4.9 82.41-4.32 83.89-3.74 86.03-3.74L86.03-3.74Q87.81-3.74 89.2-4.23 90.59-4.72 91.56-5.61 92.53-6.5 93.04-7.73 93.56-8.97 93.56-10.49L93.56-10.49Q93.56-12.17 92.8-13.24 92.04-14.31 90.8-15.03 89.56-15.75 87.98-16.25 86.39-16.76 84.73-17.29 83.07-17.81 81.48-18.51 79.89-19.21 78.66-20.32 77.42-21.42 76.66-23.09 75.9-24.75 75.9-27.2L75.9-27.2Q75.9-29.16 76.66-30.99 77.42-32.82 78.86-34.24 80.31-35.65 82.43-36.51 84.56-37.36 87.32-37.36L87.32-37.36Q90.41-37.36 92.96-36.38 95.52-35.4 97.42-33.54L97.42-33.54ZM132.41-36.94L118.85-14.69 118.85 0 113.87 0 113.87-14.69 100.34-36.94 104.72-36.94Q105.39-36.94 105.78-36.61 106.16-36.27 106.45-35.78L106.45-35.78 114.9-21.42Q115.42-20.52 115.77-19.72 116.12-18.92 116.4-18.15L116.4-18.15Q116.68-18.95 117.02-19.75 117.35-20.55 117.87-21.42L117.87-21.42 126.3-35.78Q126.53-36.2 126.93-36.57 127.33-36.94 127.97-36.94L127.97-36.94 132.41-36.94ZM155.22-13.35L155.22-13.35Q155.59-12.74 155.86-12.05 156.13-11.37 156.38-10.67L156.38-10.67Q156.64-11.4 156.93-12.05 157.21-12.71 157.57-13.38L157.57-13.38 170.07-36.09Q170.41-36.69 170.77-36.81 171.13-36.94 171.8-36.94L171.8-36.94 175.49-36.94 175.49 0 171.11 0 171.11-27.15Q171.11-27.69 171.13-28.31 171.16-28.93 171.21-29.57L171.21-29.57 158.55-6.47Q157.91-5.31 156.75-5.31L156.75-5.31 156.02-5.31Q154.86-5.31 154.22-6.47L154.22-6.47 141.28-29.65Q141.35-28.98 141.39-28.33 141.43-27.69 141.43-27.15L141.43-27.15 141.43 0 137.05 0 137.05-36.94 140.74-36.94Q141.41-36.94 141.77-36.81 142.13-36.69 142.46-36.09L142.46-36.09 155.22-13.35Z" transform="translate(-4.489999771118164, 37.36000061035156)"></path></g> <!----> <!----> <!----> <!----> <!----> <!----> <!----></g></g> <!----></g></g><defs v-gra="od"></defs></svg>